<?xml version="1.0" encoding="utf-8"?>
<!-- Generator: Adobe Illustrator 24.2.3, SVG Export Plug-In . SVG Version: 6.00 Build 0)  -->
<svg version="1.1" id="Layer_1" xmlns="http://www.w3.org/2000/svg" xmlns:xlink="http://www.w3.org/1999/xlink" x="0px" y="0px"
	 viewBox="0 0 890 500" style="enable-background:new 0 0 890 500;" xml:space="preserve">
<style type="text/css">
	.st0{fill:#EEEFFF;}
	.st1{fill:none;}
	.st2{fill:#4C22E5;}
	.st3{font-family:'ArialMT';}
	.st4{font-size:31.5547px;}
	.st5{fill:#303B85;}
	.st6{font-size:46.8735px;}
	.st7{clip-path:url(#SVGID_2_);}
	.st8{opacity:0.48;}
	.st9{fill:#FDFDFF;}
	.st10{fill:#4FCAFF;}
	.st11{fill:none;stroke:#303B85;stroke-width:1.8434;stroke-miterlimit:10;}
	.st12{fill:#090B0F;}
	.st13{fill:#8A5449;}
	.st14{fill:#04060A;}
	.st15{fill:none;stroke:#04060A;stroke-width:1.0235;stroke-linecap:round;stroke-linejoin:round;stroke-miterlimit:10;}
	.st16{fill:none;stroke:#04060A;stroke-width:1.537;stroke-miterlimit:10;}
	.st17{fill:none;stroke:#303B85;stroke-width:2.5;stroke-miterlimit:10;}
	.st18{fill:url(#SVGID_3_);}
	.st19{fill:url(#SVGID_4_);}
	.st20{fill:url(#SVGID_5_);}
	.st21{fill:url(#SVGID_6_);}
	.st22{fill:url(#SVGID_7_);}
</style>
<g id="BACKGROUND">
	<rect x="-0.5" y="-0.5" class="st0" width="891" height="501"/>
</g>
<g id="OBJECTS">
	<g>
		<g>
			<g>
				<g>
					<g>
						<rect x="483.8" y="154" class="st1" width="282.1" height="68.8"/>
						<text id="XMLID_9_" transform="matrix(1 0 0 1 522.9307 218.2619)" class="st2 st3 st4">BE CREATIVE WITH</text>
						<text id="BLOGBAY_8_" transform="matrix(1 0 0 1 566.4092 262.804)" class="st5 st3 st6">BLOG BAY</text>
					</g>
				</g>
			</g>
		</g>
		<g>
			<g>
				<defs>
					<rect id="SVGID_1_" x="-0.5" y="-0.5" width="891" height="501"/>
				</defs>
				<clipPath id="SVGID_2_">
					<use xlink:href="#SVGID_1_"  style="overflow:visible;"/>
				</clipPath>
				<g class="st7">
					<g class="st8">
						<g>
							<g>
								<path class="st9" d="M203.5,104.3v123.6c0,1.8-1.4,3.2-3.2,3.2H58.7c-1.8,0-3.2-1.4-3.2-3.2V104.3c0-1.8,1.4-3.2,3.2-3.2
									h141.7C202.1,101.1,203.5,102.5,203.5,104.3z"/>
							</g>
							<g>
								<g>
									<g>
										<g>
											<path class="st10" d="M167.1,150.7c0-5.4,4.4-9.8,9.8-9.8c3,0,5.7,1.4,7.5,3.5c1.5-1.7,2.9-3.5,3.9-5.5
												c-3-2.9-7-4.7-11.5-4.7c-9.1,0-16.4,7.4-16.4,16.4c2.2,0.9,4.5,1.4,6.8,1.8C167.1,151.9,167.1,151.3,167.1,150.7z"/>
										</g>
									</g>
									<g>
										<g>
											<path class="st2" d="M189,139.6c-1.1,2-2.5,3.8-4.1,5.6c1.1,1.6,1.7,3.5,1.7,5.5c0,5.4-4.4,9.8-9.8,9.8
												c-4.4,0-8.2-3-9.4-7c-2.4-0.4-4.8-0.9-7-1.8c0.5,8.6,7.7,15.4,16.4,15.4c9.1,0,16.4-7.4,16.4-16.4
												C193.3,146.4,191.6,142.5,189,139.6z"/>
										</g>
									</g>
								</g>
								<g>
									<g>
										<g>
											<path class="st10" d="M186.3,193.9c0,0.6-0.1,1.1-0.1,1.7c2.3-0.2,4.5-0.3,6.8-0.4c0-0.4,0.1-0.9,0.1-1.3
												c0-7.6-5.2-14-12.3-15.9c-0.6,2.1-1.1,4.3-1.6,6.5C183.2,185.6,186.3,189.4,186.3,193.9z"/>
										</g>
									</g>
									<g>
										<g>
											<path class="st2" d="M176.5,210.4c8.3,0,15.2-6.2,16.3-14.2c-2.3,0.1-4.6,0.2-6.9,0.4c-1.1,4.1-4.9,7.1-9.4,7.1
												c-5.4,0-9.8-4.4-9.8-9.8s4.4-9.8,9.8-9.8c0.6,0,1.1,0.1,1.6,0.1c0.5-2.2,1.1-4.3,1.6-6.5c-1.1-0.2-2.2-0.3-3.3-0.3
												c-9.1,0-16.4,7.4-16.4,16.4C160.1,203,167.4,210.4,176.5,210.4z"/>
										</g>
									</g>
								</g>
							</g>
							<g>
								<g>
									<g>
										<path class="st2" d="M73.7,136l-0.1,1.8l-2.2-0.1l0.1-1.7c-1.6-0.1-3.1-0.6-4-1.2l1.3-2.7c1,0.6,2.4,1.1,3.6,1.1
											c1.1,0,1.4-0.2,1.4-0.6c0-1.4-6.1-0.5-6-4.6c0.1-1.8,1.4-3.2,4-3.5l0.1-1.7l2.2,0.1l-0.1,1.7c1.2,0.2,2.3,0.5,3.2,1
											l-1.2,2.7c-1.1-0.6-2.1-0.9-3-0.9c-1.1,0-1.4,0.3-1.4,0.7c0,1.3,6.1,0.4,6,4.5C77.4,134.2,76.1,135.6,73.7,136z"/>
									</g>
								</g>
							</g>
							<g>
								<path class="st2" d="M94.2,126.8H82.6c-0.3,0-0.5,0.2-0.6,0.5c0,0.3,0.2,0.6,0.5,0.6h11.6c0.3,0,0.5-0.2,0.5-0.5l0,0
									C94.7,127.1,94.5,126.8,94.2,126.8z"/>
							</g>
							<g>
								<path class="st2" d="M94.2,130.3H82.6c-0.3,0-0.5,0.2-0.6,0.5c0,0.3,0.2,0.6,0.5,0.6h11.6c0.3,0,0.5-0.2,0.5-0.5l0,0
									C94.7,130.5,94.5,130.3,94.2,130.3z"/>
							</g>
							<g>
								<path class="st2" d="M94.2,133.7H82.6c-0.3,0-0.5,0.2-0.6,0.5c0,0.3,0.2,0.6,0.5,0.6h11.6c0.3,0,0.5-0.2,0.5-0.5l0,0
									C94.7,133.9,94.5,133.7,94.2,133.7z"/>
							</g>
							<g>
								<g>
									<g>
										<g>
											<g>
												<g>
													<g>
														<rect x="89.1" y="171.7" class="st10" width="15.4" height="43.5"/>
													</g>
												</g>
											</g>
										</g>
									</g>
									<g>
										<g>
											<g>
												<g>
													<g>
														<rect x="68.3" y="182.9" class="st2" width="14.3" height="32.3"/>
													</g>
												</g>
											</g>
										</g>
									</g>
									<g>
										<g>
											<g>
												<g>
													<g>
														<rect x="111.3" y="157.4" class="st2" width="15.2" height="57.8"/>
													</g>
												</g>
											</g>
										</g>
									</g>
									<g>
										<g>
											<g>
												<g>
													<g>
														<rect x="133.1" y="131.7" class="st10" width="15.2" height="83.6"/>
													</g>
												</g>
											</g>
										</g>
									</g>
								</g>
								<g>
									<g>
										<path class="st2" d="M71.4,168.4c-0.1,0-0.2,0-0.3-0.1c-0.2-0.1-0.2-0.4,0-0.5l17-17.8c0.1-0.1,0.4-0.1,0.5,0l9.1,8.4
											l26-26.4c0.1-0.1,0.4-0.1,0.5,0c0.2,0.1,0.2,0.4,0,0.5L98,159.2c-0.1,0.1-0.4,0.1-0.5,0l-9.1-8.4l-16.7,17.5
											C71.6,168.3,71.5,168.4,71.4,168.4z"/>
									</g>
									<g>
										<g>
											<circle class="st2" cx="71.4" cy="168" r="3"/>
										</g>
									</g>
									<g>
										<g>
											<path class="st2" d="M91.3,150.4c0,1.6-1.3,3-3,3s-3-1.3-3-3s1.3-3,3-3S91.3,148.8,91.3,150.4z"/>
										</g>
									</g>
									<g>
										<g>
											<circle class="st2" cx="98.3" cy="159.2" r="3"/>
										</g>
									</g>
									<g>
										<polygon class="st2" points="119.6,129.2 127,136 128.4,127.4 										"/>
									</g>
								</g>
								<g>
									<path class="st2" d="M156.5,215.6H61.4c-0.2,0-0.4-0.2-0.4-0.4s0.2-0.4,0.4-0.4h95.1c0.2,0,0.4,0.2,0.4,0.4
										C156.9,215.4,156.7,215.6,156.5,215.6z"/>
								</g>
							</g>
							<g>
								<path class="st2" d="M203.5,104.3v8.5H55.5v-8.5c0-1.8,1.4-3.2,3.2-3.2h141.7C202.1,101.1,203.5,102.5,203.5,104.3z"/>
							</g>
							<g>
								<g>
									<g>
										<g>
											<g>
												<path class="st10" d="M183.7,106.9c0,1-0.8,1.8-1.8,1.8s-1.8-0.8-1.8-1.8s0.8-1.8,1.8-1.8
													C182.9,105.2,183.7,105.9,183.7,106.9z"/>
											</g>
										</g>
									</g>
								</g>
								<g>
									<g>
										<g>
											<g>
												<path class="st10" d="M189.3,106.9c0,1-0.8,1.8-1.8,1.8s-1.8-0.8-1.8-1.8s0.8-1.8,1.8-1.8
													C188.6,105.2,189.3,105.9,189.3,106.9z"/>
											</g>
										</g>
									</g>
								</g>
								<g>
									<g>
										<g>
											<g>
												<path class="st10" d="M194.7,106.9c0,1-0.8,1.8-1.8,1.8s-1.8-0.8-1.8-1.8s0.8-1.8,1.8-1.8
													C193.9,105.2,194.7,105.9,194.7,106.9z"/>
											</g>
										</g>
									</g>
								</g>
							</g>
						</g>
						<g>
							<g>
								<g>
									<path class="st9" d="M535.5,392.5v-65.6c0-1.4-1.2-2.6-2.6-2.6h-83.2c-1.4,0-2.6,1.2-2.6,2.6v65.6c0,1.3,1,2.3,2.3,2.3
										h83.7C534.5,394.9,535.5,393.8,535.5,392.5z"/>
								</g>
							</g>
							<g>
								<g>
									<g>
										<path class="st2" d="M524.4,350h-17c-0.4,0-0.8,0.3-0.8,0.7c0,0.4,0.3,0.8,0.8,0.8h17.1c0.4,0,0.8-0.3,0.8-0.8l0,0
											C525.2,350.3,524.8,350,524.4,350z"/>
									</g>
									<g>
										<path class="st2" d="M524.4,355h-17c-0.4,0-0.8,0.3-0.8,0.7c0,0.4,0.3,0.8,0.8,0.8h17.1c0.4,0,0.8-0.3,0.8-0.8l0,0
											C525.2,355.4,524.8,355,524.4,355z"/>
									</g>
									<g>
										<path class="st2" d="M524.4,360h-17c-0.4,0-0.8,0.3-0.8,0.7c0,0.4,0.3,0.8,0.8,0.8h17.1c0.4,0,0.8-0.3,0.8-0.8l0,0
											C525.2,360.4,524.8,360,524.4,360z"/>
									</g>
									<g>
										<path class="st2" d="M524.4,365.1h-17c-0.4,0-0.8,0.3-0.8,0.7c0,0.4,0.3,0.8,0.8,0.8h17.1c0.4,0,0.8-0.3,0.8-0.8l0,0
											C525.2,365.4,524.8,365.1,524.4,365.1z"/>
									</g>
									<g>
										<path class="st2" d="M524.4,370.1h-17c-0.4,0-0.8,0.3-0.8,0.7c0,0.4,0.3,0.8,0.8,0.8h17.1c0.4,0,0.8-0.3,0.8-0.8l0,0
											C525.2,370.5,524.8,370.1,524.4,370.1z"/>
									</g>
									<g>
										<path class="st2" d="M524.4,375.2h-17c-0.4,0-0.8,0.3-0.8,0.7c0,0.4,0.3,0.8,0.8,0.8h17.1c0.4,0,0.8-0.3,0.8-0.8l0,0
											C525.2,375.5,524.8,375.2,524.4,375.2z"/>
									</g>
									<g>
										<path class="st2" d="M524.4,380.2h-17c-0.4,0-0.8,0.3-0.8,0.7c0,0.4,0.3,0.8,0.8,0.8h17.1c0.4,0,0.8-0.3,0.8-0.8l0,0
											C525.2,380.5,524.8,380.2,524.4,380.2z"/>
									</g>
								</g>
							</g>
							<g>
								<g>
									<path class="st2" d="M535.5,326.9v10.6h-88.4v-10.6c0-1.4,1.2-2.6,2.6-2.6h83.2C534.4,324.3,535.5,325.5,535.5,326.9z"/>
								</g>
							</g>
							<g>
								<g>
									<g>
										<g>
											<g>
												<path class="st9" d="M518,331c0,1.1-0.9,2.1-2.1,2.1c-1.2,0-2.1-0.9-2.1-2.1c0-1.1,0.9-2.1,2.1-2.1
													C517,328.9,518,329.8,518,331z"/>
											</g>
										</g>
									</g>
								</g>
								<g>
									<g>
										<g>
											<g>
												<path class="st9" d="M524.7,331c0,1.1-0.9,2.1-2.1,2.1c-1.2,0-2.1-0.9-2.1-2.1c0-1.1,0.9-2.1,2.1-2.1
													C523.8,328.9,524.7,329.8,524.7,331z"/>
											</g>
										</g>
									</g>
								</g>
								<g>
									<g>
										<g>
											<g>
												<path class="st9" d="M531.2,331c0,1.1-0.9,2.1-2.1,2.1c-1.2,0-2.1-0.9-2.1-2.1c0-1.1,0.9-2.1,2.1-2.1
													C530.2,328.9,531.2,329.8,531.2,331z"/>
											</g>
										</g>
									</g>
								</g>
							</g>
							<g>
								<g>
									<g>
										<g>
											<g>
												<path class="st2" d="M497.3,365.2c0,11.2-9.1,20.3-20.3,20.3s-20.3-9.1-20.3-20.3c0-2.8,0.6-5.4,1.6-7.8l18.7,7.8
													l-1-20.2c0.3,0,0.6,0,1,0C488.2,345,497.3,354,497.3,365.2z"/>
											</g>
										</g>
									</g>
								</g>
								<g>
									<g>
										<g>
											<g>
												<g>
													<g>
														<path class="st9" d="M474.2,341.8c-6,0.3-11.4,3.2-14.9,7.7c-1.1,1.4-2.1,3-2.8,4.7l18.7,7.8L474.2,341.8z"/>
													</g>
												</g>
											</g>
										</g>
									</g>
								</g>
							</g>
						</g>
						<g>
							<g>
								<g>
									<path class="st9" d="M488,238.5V158c0-1.3-1.1-2.4-2.4-2.4H409c-1.3,0-2.4,1.1-2.4,2.4v80.4H488z"/>
								</g>
							</g>
							<g>
								<polygon class="st2" points="425.1,179.6 425.1,182.4 421.6,182.4 421.6,185.9 418.9,185.9 418.9,182.4 415.3,182.4 
									415.3,179.6 418.9,179.6 418.9,176.1 421.6,176.1 421.6,179.6 								"/>
							</g>
							<g>
								<path class="st2" d="M439,177.5h-10.8c-0.3,0-0.5,0.2-0.5,0.5c0,0.3,0.2,0.5,0.5,0.5H439c0.3,0,0.5-0.2,0.5-0.5l0,0
									C439.5,177.7,439.3,177.5,439,177.5z"/>
							</g>
							<g>
								<path class="st2" d="M439,180.7h-10.8c-0.3,0-0.5,0.2-0.5,0.5c0,0.3,0.2,0.5,0.5,0.5H439c0.3,0,0.5-0.2,0.5-0.5l0,0
									C439.5,180.9,439.3,180.7,439,180.7z"/>
							</g>
							<g>
								<path class="st2" d="M439,183.9h-10.8c-0.3,0-0.5,0.2-0.5,0.5c0,0.3,0.2,0.5,0.5,0.5H439c0.3,0,0.5-0.2,0.5-0.5l0,0
									C439.5,184.1,439.3,183.9,439,183.9z"/>
							</g>
							<g>
								<g>
									<g>
										<path class="st2" d="M430.8,225.5L430.8,225.5c0,0.4,0.3,0.7,0.7,0.7h46.9c0.4,0,0.7-0.3,0.7-0.7l0,0
											c0-0.4-0.3-0.7-0.7-0.7h-46.9C431.1,224.8,430.8,225.1,430.8,225.5z"/>
									</g>
								</g>
								<g>
									<g>
										<path class="st2" d="M430.8,221.6L430.8,221.6c0,0.4,0.3,0.7,0.7,0.7h46.9c0.4,0,0.7-0.3,0.7-0.7l0,0
											c0-0.4-0.3-0.7-0.7-0.7h-46.9C431.1,220.8,430.8,221.2,430.8,221.6z"/>
									</g>
								</g>
								<g>
									<circle class="st9" cx="420" cy="223.5" r="5.1"/>
								</g>
							</g>
							<g>
								<g>
									<path class="st9" d="M420.8,210.2c-0.1,0-0.2,0-0.3-0.1c-0.1-0.1-0.1-0.4,0-0.5l15.6-13.7c0.1-0.1,0.2-0.1,0.4-0.1
										s0.2,0.2,0.2,0.3l0.9,9.1l19.9-17.1c0.1-0.1,0.2-0.1,0.3-0.1s0.2,0.1,0.2,0.3l3.4,13.3l16.8-16.5c0.1-0.1,0.4-0.1,0.5,0
										c0.1,0.1,0.1,0.4,0,0.5l-17.3,17c-0.1,0.1-0.2,0.1-0.3,0.1s-0.2-0.1-0.3-0.3l-3.4-13.3l-20,17.2c-0.1,0.1-0.2,0.1-0.4,0.1
										s-0.2-0.2-0.2-0.3l-0.9-9.1L421,210.1C420.9,210.2,420.9,210.2,420.8,210.2z"/>
								</g>
								<g>
									<g>
										<path class="st2" d="M459.7,188c0,1.1-0.9,2-2,2s-2-0.9-2-2s0.9-2,2-2S459.7,186.9,459.7,188z"/>
									</g>
								</g>
								<g>
									<g>
										<path class="st2" d="M480.2,185.6c0,1.1-0.9,2-2,2s-2-0.9-2-2s0.9-2,2-2S480.2,184.5,480.2,185.6z"/>
									</g>
								</g>
								<g>
									<g>
										<path class="st2" d="M438.5,196.2c0,1.1-0.9,2-2,2s-2-0.9-2-2s0.9-2,2-2S438.5,195.1,438.5,196.2z"/>
									</g>
								</g>
								<g>
									<g>
										<path class="st2" d="M439.5,206.4c0,1.1-0.9,2-2,2s-2-0.9-2-2s0.9-2,2-2C438.6,204.4,439.5,205.3,439.5,206.4z"/>
									</g>
								</g>
								<g>
									<g>
										<path class="st2" d="M422.7,210.1c0,1.1-0.9,2-2,2s-2-0.9-2-2s0.9-2,2-2S422.7,209,422.7,210.1z"/>
									</g>
								</g>
								<g>
									<g>
										<path class="st2" d="M463.3,202.1c0,1.1-0.9,2-2,2s-2-0.9-2-2s0.9-2,2-2C462.4,200.1,463.3,201,463.3,202.1z"/>
									</g>
								</g>
							</g>
							<g>
								<g>
									<path class="st2" d="M406.6,158v9.8H488V158c0-1.3-1.1-2.4-2.4-2.4H409C407.7,155.6,406.6,156.7,406.6,158z"/>
								</g>
							</g>
							<g>
								<g>
									<g>
										<g>
											<g>
												<path class="st9" d="M472.8,161.7c0,1.1-0.9,1.9-1.9,1.9c-1.1,0-1.9-0.9-1.9-1.9s0.9-1.9,1.9-1.9
													C472,159.8,472.8,160.7,472.8,161.7z"/>
											</g>
										</g>
									</g>
								</g>
								<g>
									<g>
										<g>
											<g>
												<circle class="st9" cx="477.1" cy="161.7" r="1.9"/>
											</g>
										</g>
									</g>
								</g>
								<g>
									<g>
										<g>
											<g>
												<path class="st9" d="M485,161.7c0,1.1-0.9,1.9-1.9,1.9c-1.1,0-1.9-0.9-1.9-1.9s0.9-1.9,1.9-1.9
													C484.1,159.8,485,160.7,485,161.7z"/>
											</g>
										</g>
									</g>
								</g>
							</g>
						</g>
						<g>
							<g>
								<g>
									<path class="st10" d="M365.5,151.8c5.9,9.3,3.2,21.7-6.1,27.6c-5.2,3.3-11.4,3.9-16.8,2.2c-0.7,4.6-1.1,9.3-0.7,13.9
										c8.3,1.7,17.2,0.4,24.9-4.6c15.6-10,20.2-30.8,10.3-46.4c-4.8,0.9-9.4,2.5-13.8,4.4C364,149.7,364.8,150.7,365.5,151.8z"/>
								</g>
							</g>
							<g>
								<g>
									<path class="st2" d="M339.9,195c-0.3-4.7,0.2-9.4,0.9-14.1c-3.6-1.5-6.7-4.1-9-7.6c-5.9-9.3-3.2-21.7,6.1-27.6
										c7.6-4.9,17.4-3.9,23.9,1.8c4.5-2,9.2-3.6,14.1-4.7c-10.4-14.3-30.2-18.2-45.3-8.6c-15.6,10-20.2,30.8-10.3,46.4
										C324.9,187.9,332,192.9,339.9,195z"/>
								</g>
							</g>
						</g>
						<g>
							<g>
								<g>
									<path class="st10" d="M611.8,372.2c3.6,5.6,1.9,13.1-3.7,16.6c-3.1,2-6.8,2.4-10.2,1.3c-0.4,2.8-0.7,5.6-0.4,8.4
										c5,1,10.4,0.2,15-2.7c9.4-6,12.2-18.6,6.2-28c-2.9,0.6-5.6,1.5-8.3,2.6C610.9,371,611.4,371.6,611.8,372.2z"/>
								</g>
							</g>
							<g>
								<g>
									<path class="st2" d="M596.4,398.3c-0.2-2.8,0.1-5.7,0.5-8.5c-2.2-0.9-4.1-2.5-5.4-4.6c-3.6-5.6-1.9-13.1,3.7-16.6
										c4.6-2.9,10.5-2.3,14.4,1.1c2.7-1.2,5.6-2.2,8.5-2.8c-6.2-8.6-18.2-11-27.3-5.2c-9.4,6-12.2,18.6-6.2,28
										C587.4,394,591.7,397,596.4,398.3z"/>
								</g>
							</g>
						</g>
					</g>
					<g>
						<g>
							<g>
								<path class="st11" d="M168,358.8c0,0-21.5-12.3-13-55.4"/>
								<g>
									<rect x="155.5" y="228.4" class="st2" width="10.4" height="84"/>
									<path class="st10" d="M156.6,312.4L156.6,312.4c8.8,0,15.9-7.1,15.9-15.9v-52.3c0-8.8-7.1-15.9-15.9-15.9l0,0
										c-8.8,0-15.9,7.1-15.9,15.9v52.3C140.7,305.3,147.8,312.4,156.6,312.4z"/>
									<path class="st5" d="M164.1,312.4L164.1,312.4c7.8,0,14.1-6.3,14.1-14.1v-55.9c0-7.8-6.3-14.1-14.1-14.1l0,0
										c-7.8,0-14.1,6.3-14.1,14.1v55.9C150,306.1,156.3,312.4,164.1,312.4z"/>
								</g>
								<g>
									<g>
										<rect x="191.4" y="361.1" class="st10" width="12" height="66"/>
										<polygon class="st10" points="200.2,418.7 234.6,434.3 234.1,438.7 198.3,427.1 										"/>
										<polygon class="st10" points="194.4,418.7 160,434.3 160.4,438.7 196.3,427.1 										"/>
									</g>
									<path class="st12" d="M224.9,446.6c0,4.5,3.7,8.2,8.2,8.2s8.2-3.7,8.2-8.2c0-4.5-3.7-8.2-8.2-8.2S224.9,442,224.9,446.6z"
										/>
									<path class="st12" d="M151.7,446.6c0,4.5,3.7,8.2,8.2,8.2c4.5,0,8.2-3.7,8.2-8.2c0-4.5-3.7-8.2-8.2-8.2
										S151.7,442,151.7,446.6z"/>
									<path class="st10" d="M163.5,365.7H233c3.8,0,6.9-3.1,6.9-6.9l0,0c0-3.8-3.1-6.9-6.9-6.9h-69.4c-3.8,0-6.9,3.1-6.9,6.9l0,0
										C156.6,362.6,159.7,365.7,163.5,365.7z"/>
								</g>
							</g>
							<g>
								<g>
									<polygon class="st13" points="244.7,214.2 230.1,230.5 215.8,215.6 237.7,191.5 									"/>
									<path class="st14" d="M236.1,223.7c0.3-0.3,1.8-13.3,1.8-13.3l5.1,5.6L236.1,223.7z"/>
									<path class="st13" d="M266.9,176.9c0,0,8.4,5.4,4,17c0,0-3.3,8.4-8.1,20.3c-2.5,6.3-10.4,9-16,5c-3.4-2.4-6.9-5.8-9.4-10.3
										l-3.1-7.1c-6.3-18.9,14.3-35.9,31.4-25.6C266.1,176.4,266.5,176.6,266.9,176.9z"/>
									<path class="st13" d="M265.8,202.8l2.4,5.7c0.3,0.8-0.4,1.6-1.2,1.3l-4.3-1.3L265.8,202.8z"/>
									<g>
										<g>
											<path class="st14" d="M265.5,192.4c0,0,3.2,0.8,2.9,2.3c0,0-0.3,1-3,0.2c-2.8-0.8-3.4-1.2-3.4-2.2
												C261.9,191.6,264,191.8,265.5,192.4z"/>
										</g>
									</g>
									<path class="st5" d="M229.1,172.5c2.9-4.4,9.7-7.7,14.9-7.8c22.4-0.5,28.1,19.3,28.1,19.3c-27.5-21-26,8.1-26,8.1
										s-5.3,3.2-6.6,4.9c-5.9,7.7-11.3,5.3-11.3,5.3C226.6,187.4,224.5,179.5,229.1,172.5z"/>
									<path class="st14" d="M262.6,201.6c-0.1,0.8,0.5,1.4,1.3,1.5c0.8,0.1,1.5-0.5,1.5-1.3c0.1-0.8-0.5-1.4-1.3-1.5
										C263.4,200.3,262.7,200.9,262.6,201.6z"/>
									<line class="st15" x1="262.1" y1="211.3" x2="259.2" y2="209.1"/>
									<path class="st5" d="M245.4,195.9L245.4,195.9c3.2,0.3,6.1-1.8,6.8-4.9l2.1-9.4c0,0,8.8,10.1,14,1.9c0,0,13,7.3,15.8-1.8
										s-5.8-11.5-24.4-17.2c0,0,3.7-3.2,0.9-4.9c-2.8-1.7-8.5,2.3-8.5,2.3s-0.1-5.4-3.3-5.5c-3.2-0.1-4.9,3.7-4.9,3.7
										s-23-3.8-19.7,21.6l4,20.6l13.5-10.1L245.4,195.9z"/>
									<g>
										<path class="st13" d="M234.6,190.7c-1.7,3.2-0.5,7.2,2.7,8.9c3.2,1.7,7.2,0.5,8.9-2.7c1.7-3.2,0.5-7.2-2.7-8.9
											C240.3,186.3,236.4,187.5,234.6,190.7z"/>
										<path class="st15" d="M242.4,196.3c0,0,2.2-4.2-2.1-5.7"/>
									</g>
								</g>
								<g>
									<path class="st10" d="M231.7,230.8c0,0,0.1,11.7-7.5,30.6s-4.8,52-4.8,52s-21.5,11.6-53.7,11.1c0,0-3.4-51.4,12-82.9
										c14-28.9,38.4-26.6,38.4-26.6L231.7,230.8z"/>
									<g>
										<rect x="315" y="294.4" class="st2" width="45.7" height="5"/>
										<g>
											<g>
												<polygon class="st13" points="272.3,280.4 315.1,289.9 316.5,299.4 256.8,299.4 												"/>
												<path class="st13" d="M316.5,299.4c0,0,15.9-0.4,19.5-12.7l13.5,1.9c1.6,0,2.8-1.3,2.8-2.8l0,0c0-1.4-1-2.5-2.3-2.8
													l-10.8-3.2c-1.4-0.3-2.9-0.3-4.3,0c-3.4,0.6-11.4,4.8-19.9,10.2L316.5,299.4z"/>
											</g>
											<g>
												<polygon class="st10" points="229,230.7 272.3,280.4 256.8,299.4 203.9,257.7 												"/>
												<line class="st16" x1="221.3" y1="271.4" x2="203.9" y2="257.7"/>
											</g>
										</g>
									</g>
								</g>
								<g>
									<g>
										<g>
											<polygon class="st13" points="270.5,406.8 256.5,435.2 238.6,434.1 250.3,402.6 											"/>
											<g>
												<g>
													<path class="st12" d="M259,431.4l25.5,13.7c1.9,1,2.8,3.1,2.3,5.2l0,0l-55.2-1.1l6.4-18.5L259,431.4z"/>
													<polygon class="st2" points="230.6,454.7 287.3,455.9 287.4,450.4 230.7,449.2 													"/>
												</g>
											</g>
										</g>
										<path class="st2" d="M272.3,423.9l-30.5-6l21.7-79.7c2.9-10.3,13.9-16,24-12.5l0,0c9.7,3.4,14.8,14.1,11.3,23.8
											L272.3,423.9z"/>
									</g>
									<g>
										<path class="st2" d="M219.4,313.4l65.9,11.6c0,0,5.1,9.1,0.8,14.6l-7.2,9.2c-1.8,2.2-4.4,5.6-7.3,5.6l-80.8-2
											c0,0-25.3,2.5-25.1-27.8L219.4,313.4z"/>
										<line class="st16" x1="259.2" y1="353.6" x2="267.4" y2="346.9"/>
									</g>
								</g>
							</g>
						</g>
						<g>
							<g>
								<g>
									<g>
										<rect x="395.4" y="210.3" class="st2" width="5" height="88.1"/>
										<rect x="372.1" y="294.4" class="st2" width="49.9" height="5"/>
									</g>
									
										<rect x="326.5" y="199.5" transform="matrix(0.3401 -0.9404 0.9404 0.3401 63.049 500.6012)" class="st2" width="123.3" height="11.7"/>
									<path class="st2" d="M404.5,206.8c0,8.4-6.8,15.1-15.1,15.1c-4.1,0-7.7-1.6-10.5-4.2c3.3-8.7,6.6-17.5,11.5-26
										C398.3,192.2,404.5,198.8,404.5,206.8z"/>
									<path class="st14" d="M398.3,194.6l-5,26.8c0,0-2,0.8-4.8,0.5L398.3,194.6z"/>
								</g>
							</g>
							<g>
								<g>
									<line class="st17" x1="429.4" y1="310.4" x2="429.4" y2="455.9"/>
									<line class="st17" x1="278.9" y1="310.4" x2="278.9" y2="455.9"/>
									<rect x="241.8" y="299.3" class="st5" width="218.1" height="11"/>
								</g>
							</g>
						</g>
					</g>
					<g>
						
							<linearGradient id="SVGID_3_" gradientUnits="userSpaceOnUse" x1="337.0518" y1="603.9307" x2="620.5496" y2="603.9307" gradientTransform="matrix(0.9948 0.1018 0.1018 -0.9948 -68.6231 532.1765)">
							<stop  offset="6.610600e-04" style="stop-color:#4C22E5"/>
							<stop  offset="0.1448" style="stop-color:#4C33E8"/>
							<stop  offset="0.4321" style="stop-color:#4D61EF"/>
							<stop  offset="0.8319" style="stop-color:#4EA9FA"/>
							<stop  offset="1" style="stop-color:#4FCAFF"/>
						</linearGradient>
						<path class="st18" d="M371.5-79.3c-23.8,8.6-38.2,27.7-43.6,52.8C311.3,50.3,405.5,68,428.5,48
							c43.2-37.4,23.1-35.6,116.7-25.9c56.8,5.9,108.8-57,15.7-109.7c-6.1-3.5-13.6-5.9-21.2-7.6c-18.4-4.1-35,1.4-50.8,7.7
							c-17.3,6.9-31.4,17.1-56.1,13.5C408-77.6,395.9-88,371.5-79.3z"/>
					</g>
					<g>
						
							<linearGradient id="SVGID_4_" gradientUnits="userSpaceOnUse" x1="203.9751" y1="740.9393" x2="248.254" y2="740.9393" gradientTransform="matrix(0.726 0.6877 0.6877 -0.726 -318.0204 738.9841)">
							<stop  offset="6.610600e-04" style="stop-color:#4C22E5"/>
							<stop  offset="0.1448" style="stop-color:#4C33E8"/>
							<stop  offset="0.4321" style="stop-color:#4D61EF"/>
							<stop  offset="0.8319" style="stop-color:#4EA9FA"/>
							<stop  offset="1" style="stop-color:#4FCAFF"/>
						</linearGradient>
						<path class="st19" d="M370,355.6c0,0-15.7-19.6-29.3-14.2c-13.6,5.5,6.4,23.7,17.1,29.5C368.5,376.7,382.3,370.2,370,355.6z"
							/>
					</g>
					<g>
						
							<linearGradient id="SVGID_5_" gradientUnits="userSpaceOnUse" x1="421.2457" y1="357.3052" x2="586.6925" y2="421.6456" gradientTransform="matrix(1 0 0 -1 0 502)">
							<stop  offset="6.610600e-04" style="stop-color:#4C22E5"/>
							<stop  offset="0.1448" style="stop-color:#4C33E8"/>
							<stop  offset="0.4321" style="stop-color:#4D61EF"/>
							<stop  offset="0.8319" style="stop-color:#4EA9FA"/>
							<stop  offset="1" style="stop-color:#4FCAFF"/>
						</linearGradient>
						<path class="st20" d="M534,78.2c0,0-37.3,5.6-35,27.3c3.1,27.9,46,19.8,59.9,8C579.5,96.4,570,73.7,534,78.2z"/>
					</g>
					<g>
						
							<linearGradient id="SVGID_6_" gradientUnits="userSpaceOnUse" x1="762.0803" y1="26.5937" x2="935.5048" y2="26.5937" gradientTransform="matrix(1 0 0 -1 0 502)">
							<stop  offset="6.610600e-04" style="stop-color:#4C22E5"/>
							<stop  offset="0.1448" style="stop-color:#4C33E8"/>
							<stop  offset="0.4321" style="stop-color:#4D61EF"/>
							<stop  offset="0.8319" style="stop-color:#4EA9FA"/>
							<stop  offset="1" style="stop-color:#4FCAFF"/>
						</linearGradient>
						<path class="st21" d="M869.9,431c0,0-101.6,7.7-107.5,52.3c-5.9,44.6,76.5,41.7,116.1,27.6C953.1,484.4,958.8,426.1,869.9,431
							z"/>
					</g>
					<g>
						
							<linearGradient id="SVGID_7_" gradientUnits="userSpaceOnUse" x1="-1097.9468" y1="-37.1569" x2="-1299.0591" y2="-224.9537" gradientTransform="matrix(-0.9993 -3.700000e-02 3.700000e-02 -0.9993 -1226.9308 244.946)">
							<stop  offset="6.610600e-04" style="stop-color:#4C22E5"/>
							<stop  offset="0.1448" style="stop-color:#4C33E8"/>
							<stop  offset="0.4321" style="stop-color:#4D61EF"/>
							<stop  offset="0.8319" style="stop-color:#4EA9FA"/>
							<stop  offset="1" style="stop-color:#4FCAFF"/>
						</linearGradient>
						<path class="st22" d="M-174.4,426c-21.4-31.6-21.9-67.6-6.2-103c11.4-25.6,30.8-47.4,58.2-56c22.8-7.1,47.8-4.6,70.1,3.3
							c18,6.5,35.2,15.6,47.4,30.6c12.4,15.2,18.5,33.5,20.5,52.9c2,20.7,8.3,38.2,25.3,51.1c20.4,15.4,43.8,27.3,65.8,40
							c6.8,3.9,13.6,7.9,20.4,11.8c74.5,43.3,81.7,166-78.3,147.5c-10.5-1.2-21.8-4.9-32.6-9.6c-26-11.4-41.3-32.7-55-54.5
							c-14.9-23.7-23-48.7-56.3-66.3C-128.5,456.3-152.6,458.2-174.4,426z"/>
					</g>
				</g>
			</g>
		</g>
	</g>
</g>
<rect x="734" y="-108" class="st1" width="16" height="1"/>
<polyline class="st1" points="750,-115 750,-120 639,-120 639,-115 "/>
<rect x="616" y="-146" class="st1" width="190" height="77"/>
</svg>
