<?xml version="1.0" standalone="no"?>
<!DOCTYPE svg PUBLIC "-//W3C//DTD SVG 20010904//EN"
 "http://www.w3.org/TR/2001/REC-SVG-20010904/DTD/svg10.dtd">
<svg version="1.0" xmlns="http://www.w3.org/2000/svg"
 width="422.000000pt" height="170.000000pt" viewBox="0 0 422.000000 170.000000"
 preserveAspectRatio="xMidYMid meet">

<g transform="translate(0.000000,170.000000) scale(0.100000,-0.100000)"
fill="#f3f2c9" stroke="none">
<path d="M1190 1508 c-53 -132 -70 -166 -70 -137 0 27 -68 96 -112 114 -205
83 -811 -155 -912 -357 -31 -62 -32 -79 -6 -103 22 -20 50 -14 50 12 0 74 211
229 428 314 296 115 492 118 492 7 0 -64 -134 -217 -256 -291 -74 -45 -190
-91 -266 -107 -62 -12 -71 -25 -37 -56 15 -13 43 -20 101 -25 102 -9 132 -28
136 -88 6 -85 -79 -174 -241 -252 -101 -48 -173 -59 -231 -35 -48 20 -46 20
-46 -2 0 -43 67 -74 156 -73 96 0 234 60 341 147 46 38 93 123 93 168 -1 48
-34 110 -79 146 l-41 33 63 27 c86 36 162 87 239 159 l66 62 -59 -173 c-62
-181 -68 -217 -45 -273 28 -65 86 -70 201 -16 62 29 65 29 65 9 0 -11 16 -36
35 -55 30 -30 40 -35 68 -29 72 13 137 128 137 242 0 45 -4 56 -26 73 -33 26
-42 21 -139 -69 -73 -67 -165 -116 -252 -135 -31 -6 -33 -5 -33 23 0 33 125
386 229 649 l69 173 -20 25 c-11 14 -25 25 -33 25 -7 0 -35 -56 -65 -132z
m184 -700 c-14 -41 -59 -98 -76 -98 -12 0 17 65 48 105 35 47 46 44 28 -7z"/>
<path d="M2825 1503 c-191 -29 -434 -127 -606 -244 -102 -69 -180 -187 -149
-224 34 -41 47 -37 75 20 59 121 308 270 589 352 70 20 114 27 189 27 97 1 99
0 124 -28 31 -36 26 -68 -18 -137 -88 -137 -297 -273 -478 -310 -68 -15 -83
-29 -57 -58 12 -13 38 -20 86 -25 144 -13 188 -54 155 -144 -22 -58 -81 -117
-173 -171 -130 -78 -210 -93 -325 -65 -25 6 -28 4 -25 -12 5 -27 63 -62 116
-70 68 -10 144 9 250 62 163 82 239 173 230 274 -6 57 -46 125 -83 142 -14 6
-25 14 -25 18 0 5 34 24 77 44 140 67 284 189 332 284 50 98 12 203 -90 246
-39 16 -145 27 -194 19z"/>
<path d="M470 1178 c-88 -160 -146 -354 -157 -524 l-6 -102 27 -17 c15 -10 29
-15 33 -12 3 4 10 49 14 101 14 172 62 330 144 483 25 46 45 87 45 93 0 13
-37 50 -50 50 -5 0 -27 -33 -50 -72z"/>
<path d="M2475 1186 c-93 -166 -146 -335 -165 -522 -11 -104 -10 -107 11 -130
37 -39 46 -31 54 49 19 215 80 414 168 554 15 24 27 49 27 56 0 13 -40 57 -53
57 -3 0 -22 -29 -42 -64z"/>
<path d="M3819 914 c-119 -106 -279 -205 -279 -174 0 18 30 83 47 102 22 25
10 66 -23 74 -19 5 -29 2 -36 -9 -20 -37 -64 -80 -117 -116 -72 -49 -155 -91
-180 -91 -19 0 -19 1 0 67 10 38 19 71 19 75 0 18 -42 48 -66 48 -14 0 -37 9
-51 20 -31 24 -83 26 -123 5 -66 -34 -159 -196 -145 -252 3 -12 14 -27 25 -33
26 -14 70 9 174 89 43 34 81 61 83 61 3 0 2 -13 -2 -29 -7 -35 14 -82 47 -105
47 -33 118 -13 221 61 41 30 47 32 47 15 0 -42 66 -71 135 -58 19 4 79 36 132
71 53 36 98 65 99 65 2 0 -17 -48 -41 -106 -41 -98 -52 -114 -136 -202 -142
-149 -201 -255 -183 -336 7 -37 31 -66 53 -66 20 0 159 206 231 342 41 78 66
111 128 169 75 71 203 171 263 206 33 20 37 55 6 61 -20 4 -105 -38 -195 -95
-29 -18 -54 -33 -57 -33 -2 0 9 36 25 81 17 44 30 91 30 104 0 26 -24 55 -44
55 -7 0 -46 -30 -87 -66z m-709 -48 c0 -2 -25 -23 -56 -46 -38 -28 -52 -35
-45 -22 14 26 60 59 99 71 1 1 2 -1 2 -3z"/>
<path d="M1615 926 c-42 -18 -92 -78 -126 -150 -36 -76 -37 -110 -5 -131 30
-20 49 -12 156 69 40 31 75 54 77 52 9 -8 -18 -84 -34 -97 -42 -35 -140 -172
-176 -246 -41 -87 -57 -174 -43 -247 7 -34 49 -96 66 -96 11 0 118 245 181
411 38 103 57 141 82 162 44 39 181 129 245 161 47 24 51 29 42 47 -6 11 -17
22 -24 25 -7 3 -62 -18 -121 -45 -59 -28 -110 -51 -112 -51 -2 0 -1 15 2 34 6
28 3 36 -16 50 -13 9 -29 16 -36 16 -7 0 -29 11 -49 25 -41 28 -65 30 -109 11z
m40 -97 c-31 -22 -59 -38 -61 -36 -9 9 77 77 98 77 16 0 7 -10 -37 -41z"/>
</g>
</svg>
